<svg width="50" height="50" viewBox="0 0 50 50" fill="none" xmlns="http://www.w3.org/2000/svg">
<rect width="50" height="50" rx="25" fill="white"/>
<g clip-path="url(#clip0_152_498)">
<path d="M40 10L37.8265 11.4847L39.5299 12.3156L40 10Z" fill="#424242"/>
<path d="M40 10L37.6844 10.4701L38.1633 11.8367L40 10Z" fill="#707070"/>
<path d="M16.4162 22.164L23.2502 23.8176L29.1026 16.0029L23.8486 14.7317L16.4162 22.164Z" fill="#2F91ED"/>
<path d="M27.8361 33.5838L26.2221 26.9134L33.9971 20.8974L35.2684 26.1514L27.8361 33.5838Z" fill="#003DA8"/>
<path d="M36.4119 12.2894L22.6578 26.0433L26.5097 28.3848L38.7533 16.1413L36.4119 12.2894Z" fill="#FF8E00"/>
<path d="M33.8587 11.2467L21.6152 23.4903L23.9566 27.3422L37.7106 13.5881L33.8587 11.2467Z" fill="#FFBA00"/>
<path d="M18.7198 38.1004C20.6031 36.2171 20.6031 33.1636 18.7198 31.2802L13.9388 34.0612L10.3257 39.6743C10.3257 39.6743 15.7557 41.0645 18.7198 38.1004Z" fill="#FF8E00"/>
<path d="M11.8996 31.2802C8.93547 34.2443 10.3257 39.6743 10.3257 39.6743L18.7198 31.2802C16.8364 29.3969 13.7829 29.3968 11.8996 31.2802Z" fill="#FFBA00"/>
<path d="M16.9006 33.0994L14.3599 34.3878L12.5763 37.4238L13.2467 37.4274C14.3908 37.4274 15.9535 37.2286 16.9007 36.2813C17.3251 35.8569 17.5589 35.2919 17.5589 34.6904C17.5588 34.0889 17.3251 33.5238 16.9006 33.0994Z" fill="#FFBA00"/>
<path d="M15.3096 32.4403C14.7087 32.4403 14.1437 32.6743 13.7187 33.0993C12.7554 34.0625 12.5626 35.6538 12.5705 36.8191L12.5746 37.4237H12.5762L16.9005 33.0994C16.4756 32.6744 15.9105 32.4403 15.3096 32.4403Z" fill="#FDE09C"/>
<path d="M23.3073 26.6928L23.9566 27.3421L37.7106 13.5881L37.0613 12.9388L29.6629 19.704L23.3073 26.6928Z" fill="#424242"/>
<path d="M23.3072 26.6927L37.0609 12.939L36.4116 12.2896L22.6579 26.0433L23.3072 26.6927Z" fill="#707070"/>
<path d="M20.8384 29.1616L22.3167 30.6399C22.8518 31.175 23.7194 31.175 24.2545 30.6399L26.5096 28.3848L24.0623 25.9376L21.9694 26.6836L20.8384 29.1616Z" fill="#FF0F4D"/>
<path d="M21.6152 23.4903L19.36 25.7454C18.825 26.2805 18.825 27.1482 19.36 27.6832L20.8384 29.1616L24.0624 25.9375L21.6152 23.4903Z" fill="#FF6E7A"/>
<path d="M38.2888 11.0746L37.2701 11.7143L36.306 13.694L38.7533 16.1413L39.5299 12.3156L38.2888 11.0746Z" fill="#FFBA00"/>
<path d="M37.6843 10.4701L33.8587 11.2467H33.8586L36.306 13.6939L38.6071 11.3928L37.6843 10.4701Z" fill="#FDE09C"/>
</g>
<defs>
<clipPath id="clip0_152_498">
<rect width="30" height="30" fill="white" transform="translate(10 10)"/>
</clipPath>
</defs>
</svg>
