<svg width="50" height="50" viewBox="0 0 50 50" fill="none" xmlns="http://www.w3.org/2000/svg">
<g clip-path="url(#clip0_165_194)">
<path d="M25 50C38.8071 50 50 38.8071 50 25C50 11.1929 38.8071 0 25 0C11.1929 0 0 11.1929 0 25C0 38.8071 11.1929 50 25 50Z" fill="#0F62FE"/>
<path d="M5.00244 31.9062H12.7762V33.0167H5.00244V31.9062ZM5.00244 29.7684H12.7762V30.8859H5.00244V29.7684ZM7.21657 27.6376H10.5551V28.755H7.21657V27.6376ZM7.21657 25.5067H10.5551V26.6242H7.21657V25.5067ZM7.21657 23.3759H10.5551V24.4934H7.21657V23.3759ZM7.21657 21.2381H10.5551V22.3556H7.21657V21.2381ZM5.00244 19.1073H12.7762V20.2247H5.00244V19.1073ZM5.00244 16.9764H12.7762V18.0939H5.00244V16.9764ZM13.8867 30.8859H25.8458C26.047 30.5458 26.1997 30.164 26.29 29.7684H13.8867V30.8859ZM24.9157 25.5067H16.1147V26.6242H25.8527C25.6028 26.2008 25.2905 25.826 24.9157 25.5067ZM16.1078 23.3759V24.4934H24.9157C25.2835 24.181 25.5959 23.8062 25.8458 23.3759H16.1078ZM25.8458 19.1073H13.8867V20.2247H26.29C26.1928 19.8361 26.0401 19.4613 25.8458 19.1073ZM22.1741 16.9764H13.8867V18.0939H25.0267C24.2494 17.379 23.2291 16.9764 22.1741 16.9764ZM16.1078 21.2381H19.4394V22.3556H16.1078V21.2381ZM22.7779 22.3556H26.2622C26.3594 22.0016 26.4149 21.6199 26.4149 21.2381H22.7779V22.3556ZM16.1078 27.6376H19.4394V28.755H16.1078V27.6376ZM22.7779 27.6376V28.755H26.4149C26.4149 28.3733 26.3663 27.9915 26.2622 27.6376H22.7779ZM13.8867 33.0098L22.1671 33.0236C23.2776 33.0236 24.2771 32.5933 25.0267 31.9062H13.8867V33.0098ZM27.22 31.9062H32.7727V33.0167H27.22V31.9062ZM27.22 29.7684H32.7727V30.8859H27.22V29.7684ZM29.4411 27.6376H32.7727V28.755H29.4411V27.6376ZM29.4411 25.5067H32.7727V26.6242H29.4411V25.5067ZM34.3205 19.1073H27.22V20.2247H34.7022L34.3205 19.1073ZM33.5848 16.9764H27.22V18.0939H33.9665L33.5848 16.9764ZM39.4359 31.9062H44.9955V33.0167H39.4359V31.9062ZM39.4359 29.7684H44.9955V30.8859H39.4359V29.7684ZM39.4359 27.6376H42.7675V28.755H39.4359V27.6376ZM39.4359 25.5067H42.7675V26.6242H39.4359V25.5067ZM39.4359 24.4934H42.7675V23.3759H36.4166L36.1043 24.2782L35.792 23.3759H29.4411V24.4934H32.7727V23.4661L33.1267 24.4934H39.0819L39.4359 23.4661V24.4934ZM42.7744 21.2381H37.1593L36.7776 22.3556H42.7744V21.2381ZM38.6377 16.9764L38.256 18.0939H45.0024V16.9764H38.6377ZM36.1043 33.0098L36.486 31.9062H35.7156L36.1043 33.0098ZM35.3686 30.8859H36.84L37.2357 29.7684H34.9729L35.3686 30.8859ZM34.619 28.755H37.5896L37.9783 27.6376H34.2303L34.619 28.755ZM33.8763 26.6242H38.3392L38.721 25.5067H33.4945L33.8763 26.6242ZM29.4411 22.3556H35.4449L35.0632 21.2381H29.4411V22.3556ZM37.5133 20.2247H44.9955V19.1073H37.895L37.5133 20.2247Z" fill="white"/>
</g>
<defs>
<clipPath id="clip0_165_194">
<rect width="50" height="50" fill="white"/>
</clipPath>
</defs>
</svg>
