<svg width="50" height="50" viewBox="0 0 50 50" fill="none" xmlns="http://www.w3.org/2000/svg">
<rect width="50" height="50" rx="25" fill="white"/>
<path d="M14.9299 13H10V37.1077H14.9299V13Z" fill="#E34D25"/>
<path fill-rule="evenodd" clip-rule="evenodd" d="M39.9975 37.1077H35.2692V26.5135C35.2692 24.888 35.4317 23.0558 34.0616 22.7891C33.6865 22.7352 33.3029 22.7875 32.9555 22.9401C31.7222 23.4586 31.6976 24.7216 31.6976 26.4884V37.1077H26.97V26.5387C26.9704 24.884 27.1306 23.0594 25.7371 22.7891C25.3612 22.7352 24.9784 22.7875 24.6302 22.9401C23.4111 23.4528 23.398 24.7446 23.398 26.4884V37.1077H18.6697C18.672 31.5346 18.7335 25.6654 18.5444 20.2975H23.2724C23.3143 20.8681 23.3558 21.4386 23.398 22.0089L23.4484 21.9838C24.0314 20.2325 27.0265 19.3547 29.2329 20.222C30.4897 20.7161 30.8044 21.3697 31.4716 22.4365H31.497C32.4221 19.6299 37.4145 18.9202 39.2177 21.4552C40.0856 22.6751 39.9975 24.6597 39.9975 26.7901V37.1077Z" fill="#EFA523"/>
</svg>
